<?xml version="1.0" encoding="utf-8"?>
<svg viewBox="0 0 1 1" width="37.04" height="34.55" xmlns="http://www.w3.org/2000/svg" xmlns:bx="https://boxy-svg.com">
  <path stroke="none" fill="#000000" d="M 0.901 0 L 1 0.098 C 0.678 0.664 0.427 0.905 0.248 0.823 L 0.202 0.774 C 0.139 0.567 0.372 0.309 0.901 0 M 0.097 0.764 L 0.1 0.761 C 0.119 0.741 0.141 0.731 0.168 0.731 C 0.195 0.73 0.219 0.74 0.239 0.76 C 0.258 0.78 0.267 0.805 0.267 0.834 C 0.267 0.863 0.258 0.887 0.239 0.907 L 0.236 0.91 C 0.195 0.953 0.154 0.983 0.11 1 L 0.016 0.997 C -0.004 0.977 -0.005 0.944 0.012 0.897 C 0.028 0.851 0.056 0.807 0.097 0.764" bx:origin="-0.000062 0"/>
</svg>