<?xml version="1.0" encoding="utf-8"?>
<svg viewBox="0 0 1 1" width="31.962" height="28.256" xmlns="http://www.w3.org/2000/svg" xmlns:bx="https://boxy-svg.com">
  <path stroke="none" fill="#000000" d="M 0.234 0.791 C 0.246 0.79 0.257 0.784 0.266 0.774 L 0.423 0.561 L 0.736 0.981 C 0.743 0.991 0.753 0.998 0.765 1 C 0.778 1.001 0.789 0.997 0.798 0.988 L 0.984 0.807 C 0.994 0.799 0.999 0.788 1 0.774 C 1.001 0.76 0.998 0.747 0.991 0.735 L 0.459 0.016 L 0.437 0 L 0.412 0 L 0.388 0.016 L 0.011 0.526 C 0.003 0.538 -0.001 0.55 0 0.563 C 0.001 0.579 0.007 0.59 0.016 0.599 L 0.201 0.779 C 0.211 0.789 0.222 0.793 0.234 0.791" bx:origin="0.000151 0.5"/>
</svg>