<?xml version="1.0" encoding="utf-8"?>
<svg viewBox="0 0 1 1" width="36" height="36" xmlns="http://www.w3.org/2000/svg" xmlns:bx="https://boxy-svg.com">
  <path stroke="none" fill="#000000" d="M 1 0.333 L 1 0.667 C 1 0.681 0.994 0.694 0.983 0.706 C 0.972 0.717 0.959 0.722 0.944 0.722 L 0.722 0.722 L 0.722 0.944 C 0.722 0.96 0.717 0.974 0.706 0.985 C 0.694 0.995 0.681 1 0.667 1 L 0.333 1 C 0.318 1 0.304 0.995 0.293 0.985 C 0.283 0.974 0.278 0.96 0.278 0.944 L 0.278 0.722 L 0.056 0.722 C 0.04 0.722 0.026 0.717 0.015 0.706 C 0.005 0.694 0 0.681 0 0.667 L 0 0.333 C 0 0.318 0.005 0.304 0.015 0.293 C 0.026 0.283 0.04 0.278 0.056 0.278 L 0.278 0.278 L 0.278 0.057 C 0.278 0.041 0.283 0.028 0.293 0.017 C 0.304 0.006 0.318 0 0.333 0 L 0.667 0 C 0.681 0 0.694 0.006 0.706 0.017 C 0.717 0.028 0.722 0.041 0.722 0.056 L 0.722 0.278 L 0.943 0.278 C 0.959 0.278 0.972 0.283 0.983 0.293 C 0.994 0.304 1 0.318 1 0.333" bx:origin="0 0"/>
</svg>