<?xml version="1.0" encoding="utf-8"?>
<svg viewBox="0 0 1 1" width="32" height="32" xmlns="http://www.w3.org/2000/svg" xmlns:bx="https://boxy-svg.com">
  <path stroke="none" fill="#000000" d="M 0.963 0.306 C 0.988 0.366 1 0.43 1 0.5 C 1 0.51 0.996 0.519 0.989 0.527 C 0.982 0.534 0.973 0.538 0.963 0.538 L 0.859 0.538 L 0.847 0.602 L 0.944 0.642 L 0.964 0.663 C 0.968 0.672 0.968 0.681 0.964 0.691 C 0.94 0.75 0.903 0.805 0.853 0.855 L 0.828 0.864 L 0.802 0.855 L 0.728 0.781 L 0.673 0.819 L 0.714 0.914 C 0.718 0.923 0.718 0.933 0.714 0.942 L 0.694 0.963 C 0.634 0.988 0.57 1 0.5 1 C 0.49 1 0.481 0.996 0.473 0.989 C 0.466 0.982 0.463 0.973 0.463 0.963 L 0.463 0.859 L 0.398 0.848 L 0.359 0.944 L 0.339 0.964 C 0.33 0.968 0.32 0.968 0.311 0.964 C 0.251 0.94 0.196 0.904 0.147 0.855 C 0.14 0.847 0.136 0.839 0.136 0.828 C 0.136 0.818 0.14 0.809 0.147 0.802 L 0.22 0.728 L 0.183 0.673 L 0.086 0.714 C 0.077 0.718 0.067 0.718 0.058 0.714 L 0.038 0.694 C 0.013 0.634 0 0.57 0 0.5 C 0 0.49 0.004 0.481 0.011 0.473 C 0.018 0.466 0.027 0.463 0.038 0.463 L 0.141 0.463 L 0.153 0.398 L 0.056 0.359 L 0.036 0.339 C 0.032 0.33 0.032 0.32 0.036 0.311 C 0.06 0.251 0.097 0.196 0.147 0.147 C 0.154 0.14 0.163 0.136 0.172 0.136 C 0.182 0.136 0.191 0.14 0.198 0.147 L 0.272 0.22 C 0.29 0.206 0.308 0.193 0.327 0.183 L 0.286 0.086 C 0.282 0.077 0.282 0.067 0.286 0.058 C 0.29 0.048 0.297 0.042 0.306 0.038 C 0.366 0.013 0.43 0 0.5 0 C 0.51 0 0.519 0.004 0.527 0.011 C 0.534 0.018 0.538 0.027 0.538 0.038 L 0.538 0.141 L 0.602 0.153 L 0.642 0.056 C 0.645 0.047 0.652 0.04 0.661 0.036 C 0.67 0.032 0.68 0.032 0.691 0.036 C 0.729 0.052 0.766 0.073 0.802 0.1 L 0.853 0.147 C 0.86 0.154 0.864 0.163 0.864 0.173 L 0.853 0.198 L 0.781 0.272 L 0.817 0.327 L 0.914 0.286 C 0.923 0.282 0.933 0.282 0.942 0.286 L 0.963 0.306" bx:origin="0 0.5"/>
</svg>