<?xml version="1.0" encoding="utf-8"?>
<svg viewBox="0 0 1 1" width="18" height="16" xmlns="http://www.w3.org/2000/svg" xmlns:bx="https://boxy-svg.com">
  <path stroke="none" fill="#FF0054" d="M 0.528 0.903 C 0.58 0.968 0.644 1 0.722 1 C 0.798 1 0.864 0.968 0.919 0.903 L 0.922 0.903 C 0.974 0.839 1 0.764 1 0.678 C 1 0.605 0.982 0.542 0.944 0.488 L 0.919 0.453 L 0.539 0.019 L 0.5 0 C 0.485 0 0.472 0.006 0.461 0.019 L 0.081 0.453 L 0.056 0.488 C 0.019 0.542 0 0.605 0 0.678 C 0 0.764 0.027 0.839 0.081 0.903 C 0.136 0.968 0.202 1 0.278 1 C 0.356 1 0.42 0.968 0.472 0.903 L 0.5 0.866 L 0.528 0.903" bx:origin="0 0"/>
</svg>