<?xml version="1.0" encoding="utf-8"?>
<svg viewBox="0 0 1 1" width="34.014" height="29.963" xmlns="http://www.w3.org/2000/svg" xmlns:bx="https://boxy-svg.com">
  <path stroke="none" fill="#000000" d="M 0.867 0.098 C 0.868 0.119 0.865 0.137 0.857 0.153 L 0.982 0.296 C 1.006 0.324 1.006 0.352 0.982 0.38 L 0.954 0.411 L 0.941 0.42 L 0.929 0.413 L 0.91 0.391 L 0.844 0.47 L 0.863 0.49 L 0.867 0.503 L 0.861 0.518 L 0.835 0.55 C 0.809 0.579 0.784 0.579 0.76 0.55 L 0.635 0.406 L 0.516 0.547 C 0.54 0.592 0.557 0.641 0.566 0.693 L 0.563 0.695 C 0.578 0.791 0.559 0.867 0.505 0.924 C 0.455 0.987 0.387 1.011 0.303 0.995 C 0.236 0.982 0.175 0.946 0.12 0.889 L 0.109 0.875 C 0.051 0.811 0.016 0.738 0.004 0.657 L 0.004 0.655 C -0.001 0.624 -0.001 0.595 0.003 0.57 C 0.006 0.51 0.026 0.46 0.063 0.42 C 0.099 0.377 0.143 0.354 0.194 0.348 L 0.266 0.351 L 0.27 0.351 C 0.313 0.36 0.354 0.379 0.392 0.406 L 0.727 0.021 C 0.74 0.004 0.759 -0.003 0.783 0.001 C 0.805 0.004 0.824 0.015 0.839 0.034 L 0.852 0.048 C 0.862 0.062 0.867 0.079 0.867 0.098" bx:origin="-0.000115 0.000097"/>
</svg>