<?xml version="1.0" encoding="utf-8"?>
<svg viewBox="0 0 1 1" width="31.962" height="28.256" xmlns="http://www.w3.org/2000/svg" xmlns:bx="https://boxy-svg.com">
  <path stroke="none" fill="#000000" d="M 0.234 0.209 C 0.246 0.21 0.257 0.216 0.266 0.226 L 0.423 0.439 L 0.736 0.019 C 0.743 0.009 0.753 0.002 0.765 0 C 0.778 -0.001 0.789 0.003 0.798 0.012 L 0.984 0.193 C 0.994 0.201 0.999 0.212 1 0.226 C 1.001 0.24 0.998 0.253 0.991 0.265 L 0.459 0.984 L 0.437 1 L 0.412 1 L 0.388 0.984 L 0.011 0.474 C 0.003 0.462 -0.001 0.45 0 0.437 C 0.001 0.421 0.007 0.41 0.016 0.401 L 0.201 0.221 C 0.211 0.211 0.222 0.207 0.234 0.209" bx:origin="0.000151 0.5"/>
</svg>