<?xml version="1.0" encoding="utf-8"?>
<svg viewBox="0 0 1 1" width="33.009" height="26.95" xmlns="http://www.w3.org/2000/svg" xmlns:bx="https://boxy-svg.com">
  <path stroke="none" fill="#000000" d="M 0.98 0.766 C 0.992 0.754 0.999 0.737 1 0.716 C 1.001 0.698 0.996 0.68 0.986 0.664 L 0.547 0.024 L 0.518 0 L 0.483 0 C 0.471 0.005 0.462 0.013 0.454 0.024 L 0.015 0.664 C 0.004 0.68 -0.001 0.698 0 0.716 C 0.001 0.735 0.007 0.751 0.018 0.764 L 0.194 0.978 C 0.206 0.993 0.22 1 0.236 1 L 0.75 1 C 0.766 1 0.78 0.993 0.791 0.98 L 0.98 0.766" bx:origin="0.000125 0"/>
</svg>