<?xml version="1.0" encoding="utf-8"?>
<svg viewBox="0 0 1 1" width="33.009" height="26.95" xmlns="http://www.w3.org/2000/svg" xmlns:bx="https://boxy-svg.com">
  <path stroke="none" fill="#000000" d="M 0.98 0.234 C 0.992 0.246 0.999 0.263 1 0.284 C 1.001 0.302 0.996 0.32 0.986 0.336 L 0.547 0.976 L 0.518 1 L 0.483 1 C 0.471 0.995 0.462 0.987 0.454 0.976 L 0.015 0.336 C 0.004 0.32 -0.001 0.302 0 0.284 C 0.001 0.265 0.007 0.249 0.018 0.236 L 0.194 0.022 C 0.206 0.007 0.22 0 0.236 0 L 0.75 0 C 0.766 0 0.78 0.007 0.791 0.02 L 0.98 0.234" bx:origin="0.000125 0"/>
</svg>