<?xml version="1.0" encoding="utf-8"?>
<svg viewBox="0 0 1 1" width="18" height="16" xmlns="http://www.w3.org/2000/svg" xmlns:bx="https://boxy-svg.com">
  <path stroke="none" fill="#FF0054" d="M 0.528 0.097 C 0.58 0.032 0.644 0 0.722 0 C 0.798 0 0.864 0.032 0.919 0.097 L 0.922 0.097 C 0.974 0.161 1 0.236 1 0.322 C 1 0.395 0.982 0.458 0.944 0.512 L 0.919 0.547 L 0.539 0.981 L 0.5 1 C 0.485 1 0.472 0.994 0.461 0.981 L 0.081 0.547 L 0.056 0.512 C 0.019 0.458 0 0.395 0 0.322 C 0 0.236 0.027 0.161 0.081 0.097 C 0.136 0.032 0.202 0 0.278 0 C 0.356 0 0.42 0.032 0.472 0.097 L 0.5 0.134 L 0.528 0.097" bx:origin="0 0"/>
</svg>