<?xml version="1.0" encoding="utf-8"?>
<svg viewBox="0 0 1 1" width="32" height="38" xmlns="http://www.w3.org/2000/svg" xmlns:bx="https://boxy-svg.com">
  <path stroke="none" fill="#000000" d="M 0.875 0.895 L 0.875 0.789 L 0.75 0.789 L 0.75 0.895 L 0.25 0.895 L 0.25 0.526 L 1 0.526 L 1 0.053 C 1 0.038 0.994 0.025 0.981 0.014 C 0.969 0.005 0.954 0 0.938 0 L 0.063 0 C 0.045 0 0.03 0.005 0.017 0.014 C 0.006 0.025 0 0.038 0 0.053 L 0 0.526 L 0.125 0.526 L 0.125 0.895 C 0.125 0.924 0.137 0.948 0.161 0.968 C 0.186 0.989 0.216 1 0.25 1 L 0.75 1 C 0.784 1 0.814 0.989 0.838 0.968 C 0.863 0.947 0.875 0.923 0.875 0.895" bx:origin="0 0.5"/>
</svg>