<?xml version="1.0" encoding="utf-8"?>
<svg viewBox="0 0 1 1" width="32" height="38" xmlns="http://www.w3.org/2000/svg" xmlns:bx="https://boxy-svg.com">
  <path stroke="none" fill="#000000" d="M 0.875 0.105 L 0.875 0.211 L 0.75 0.211 L 0.75 0.105 L 0.25 0.105 L 0.25 0.474 L 1 0.474 L 1 0.947 C 1 0.962 0.994 0.975 0.981 0.986 C 0.969 0.995 0.954 1 0.938 1 L 0.063 1 C 0.045 1 0.03 0.995 0.017 0.986 C 0.006 0.975 0 0.962 0 0.947 L 0 0.474 L 0.125 0.474 L 0.125 0.105 C 0.125 0.076 0.137 0.052 0.161 0.032 C 0.186 0.011 0.216 0 0.25 0 L 0.75 0 C 0.784 0 0.814 0.011 0.838 0.032 C 0.863 0.053 0.875 0.077 0.875 0.105" bx:origin="0 0.5"/>
</svg>