<?xml version="1.0" encoding="utf-8"?>
<svg viewBox="0 0 1 1" width="26.995" height="30.985" xmlns="http://www.w3.org/2000/svg" xmlns:bx="https://boxy-svg.com">
  <path stroke="none" fill="#000000" d="M 1 0.094 L 1 0.581 L 1 0.592 C 0.993 0.651 0.968 0.7 0.926 0.737 L 0.922 0.737 C 0.878 0.78 0.825 0.804 0.765 0.808 L 0.763 0.808 C 0.7 0.814 0.647 0.797 0.606 0.758 C 0.565 0.724 0.547 0.678 0.554 0.62 C 0.56 0.568 0.584 0.523 0.628 0.484 C 0.67 0.447 0.715 0.426 0.765 0.42 L 0.815 0.42 L 0.815 0.258 L 0.444 0.258 L 0.444 0.807 C 0.447 0.848 0.422 0.889 0.368 0.929 L 0.367 0.934 C 0.322 0.972 0.271 0.993 0.213 0.999 L 0.211 0.999 C 0.147 1.004 0.094 0.989 0.054 0.952 C 0.012 0.917 -0.006 0.871 0.002 0.816 C 0.007 0.763 0.031 0.716 0.074 0.676 L 0.078 0.674 C 0.118 0.64 0.163 0.619 0.211 0.61 L 0.213 0.61 L 0.296 0.613 L 0.296 0.097 C 0.294 0.03 0.324 -0.002 0.387 0 L 0.889 0 C 0.963 0 1 0.031 1 0.094" bx:origin="-0.000147 0.000088"/>
</svg>