<?xml version="1.0" encoding="utf-8"?>
<svg viewBox="0 0 1 1" width="26.995" height="30.985" xmlns="http://www.w3.org/2000/svg" xmlns:bx="https://boxy-svg.com">
  <path stroke="none" fill="#000000" d="M 1 0.906 L 1 0.419 L 1 0.408 C 0.993 0.349 0.968 0.3 0.926 0.263 L 0.922 0.263 C 0.878 0.22 0.825 0.196 0.765 0.192 L 0.763 0.192 C 0.7 0.186 0.647 0.203 0.606 0.242 C 0.565 0.276 0.547 0.322 0.554 0.38 C 0.56 0.432 0.584 0.477 0.628 0.516 C 0.67 0.553 0.715 0.574 0.765 0.58 L 0.815 0.58 L 0.815 0.742 L 0.444 0.742 L 0.444 0.193 C 0.447 0.152 0.422 0.111 0.368 0.071 L 0.367 0.066 C 0.322 0.028 0.271 0.007 0.213 0.001 L 0.211 0.001 C 0.147 -0.004 0.094 0.011 0.054 0.048 C 0.012 0.083 -0.006 0.129 0.002 0.184 C 0.007 0.237 0.031 0.284 0.074 0.324 L 0.078 0.326 C 0.118 0.36 0.163 0.381 0.211 0.39 L 0.213 0.39 L 0.296 0.387 L 0.296 0.903 C 0.294 0.97 0.324 1.002 0.387 1 L 0.889 1 C 0.963 1 1 0.969 1 0.906" bx:origin="-0.000147 0.000088"/>
</svg>