<?xml version="1.0" encoding="utf-8"?>
<svg viewBox="0 0 1 1" width="28" height="40" xmlns="http://www.w3.org/2000/svg" xmlns:bx="https://boxy-svg.com">
  <path stroke="none" fill="#000000" d="M 0.857 0.45 C 0.857 0.464 0.85 0.476 0.836 0.486 C 0.821 0.495 0.805 0.5 0.786 0.5 L 0.7 0.5 L 0.691 0.506 C 0.751 0.524 0.805 0.549 0.854 0.581 C 0.951 0.647 1 0.727 1 0.821 C 1 0.871 0.951 0.913 0.854 0.948 C 0.757 0.983 0.639 1 0.5 1 C 0.362 1 0.244 0.983 0.146 0.948 C 0.05 0.913 0.001 0.871 0 0.821 C 0 0.727 0.049 0.647 0.146 0.581 C 0.195 0.549 0.249 0.524 0.309 0.506 L 0.3 0.5 L 0.214 0.5 C 0.194 0.5 0.177 0.495 0.162 0.486 C 0.149 0.476 0.143 0.464 0.143 0.45 L 0.143 0.051 C 0.143 0.037 0.149 0.025 0.162 0.015 C 0.177 0.005 0.194 0 0.214 0 L 0.786 0 C 0.805 0 0.821 0.005 0.836 0.015 C 0.85 0.025 0.857 0.037 0.857 0.05 L 0.857 0.45" bx:origin="0 0"/>
</svg>