<?xml version="1.0" encoding="utf-8"?>
<svg viewBox="0 0 1 1" width="25.15" height="41.35" xmlns="http://www.w3.org/2000/svg" xmlns:bx="https://boxy-svg.com">
  <path stroke="none" fill="#000000" d="M 0.769 0.202 L 0.779 0.208 C 0.926 0.297 1 0.407 1 0.536 C 1 0.665 0.926 0.774 0.779 0.865 C 0.631 0.954 0.451 0.999 0.239 0.999 L 0.159 1 L 0.159 0.822 L 0.318 0.822 L 0.318 0.9 C 0.452 0.89 0.568 0.855 0.666 0.796 C 0.783 0.724 0.841 0.637 0.841 0.536 C 0.841 0.434 0.783 0.348 0.666 0.277 L 0.656 0.271 L 0.658 0.271 C 0.541 0.203 0.402 0.169 0.239 0.169 L 0.239 0.242 L 0 0.121 L 0.239 0 L 0.239 0.073 C 0.444 0.073 0.62 0.115 0.767 0.201 L 0.767 0.202 L 0.769 0.202" bx:origin="0 0"/>
</svg>