<?xml version="1.0" encoding="utf-8"?>
<svg viewBox="0 0 1 1" width="32.001" height="31.8" xmlns="http://www.w3.org/2000/svg" xmlns:bx="https://boxy-svg.com">
  <path stroke="none" fill="#000000" d="M 0.563 0.093 C 0.62 0.145 0.653 0.21 0.663 0.286 L 0.663 0.289 L 0.663 0.291 L 0.663 0.336 L 0.66 0.373 L 0.939 0.651 C 0.975 0.682 0.995 0.721 0.999 0.767 L 1 0.796 C 1 0.854 0.981 0.903 0.941 0.942 L 0.939 0.943 C 0.903 0.981 0.854 1 0.793 1 C 0.737 1 0.689 0.981 0.647 0.943 L 0.647 0.942 L 0.461 0.756 L 0.457 0.744 L 0.364 0.656 L 0.282 0.651 L 0.285 0.653 C 0.212 0.641 0.15 0.611 0.099 0.561 L 0.099 0.56 C 0.025 0.482 -0.007 0.396 0.002 0.302 C 0.003 0.271 0.009 0.241 0.021 0.211 C 0.023 0.204 0.026 0.2 0.032 0.197 L 0.047 0.193 L 0.06 0.201 L 0.238 0.381 L 0.272 0.399 L 0.304 0.382 L 0.304 0.381 L 0.379 0.302 C 0.394 0.287 0.398 0.271 0.391 0.255 L 0.377 0.233 L 0.199 0.061 L 0.193 0.049 C 0.19 0.042 0.191 0.037 0.194 0.033 C 0.196 0.028 0.2 0.024 0.205 0.022 C 0.219 0.015 0.232 0.009 0.244 0.005 L 0.246 0.005 L 0.394 0 C 0.459 0.012 0.515 0.042 0.564 0.093 L 0.563 0.093" bx:origin="-0.00052 0"/>
</svg>