<?xml version="1.0" encoding="utf-8"?>
<svg viewBox="0 0 1 1" width="24" height="33.95" xmlns="http://www.w3.org/2000/svg" xmlns:bx="https://boxy-svg.com">
  <path stroke="none" fill="#000000" d="M 1 0.352 C 1 0.449 0.951 0.532 0.854 0.601 C 0.81 0.633 0.761 0.658 0.708 0.676 L 0.708 0.973 L 0.698 0.993 L 0.671 1 L 0.644 0.994 L 0.5 0.892 L 0.356 0.994 L 0.329 1 L 0.302 0.993 L 0.292 0.973 L 0.292 0.677 C 0.237 0.659 0.187 0.633 0.142 0.601 C 0.047 0.532 0 0.449 0 0.352 C 0 0.254 0.047 0.17 0.142 0.102 C 0.239 0.034 0.358 0 0.5 0 C 0.639 0 0.757 0.034 0.854 0.102 C 0.951 0.17 1 0.254 1 0.352" bx:origin="0 0.5"/>
</svg>