<?xml version="1.0" encoding="utf-8"?>
<svg viewBox="0 0 1 1" width="30.01" height="33.3" xmlns="http://www.w3.org/2000/svg" xmlns:bx="https://boxy-svg.com">
  <path stroke="none" fill="#000000" d="M 0.902 0.359 C 0.902 0.439 0.876 0.51 0.825 0.572 L 0.827 0.574 L 0.995 0.838 L 1 0.857 L 0.983 0.874 L 0.962 0.878 L 0.805 0.841 L 0.764 0.982 L 0.747 0.997 L 0.725 1 L 0.707 0.988 L 0.539 0.724 L 0.537 0.719 L 0.502 0.721 L 0.465 0.719 L 0.462 0.724 L 0.294 0.988 L 0.275 1 L 0.254 0.997 L 0.237 0.982 L 0.195 0.841 L 0.039 0.878 L 0.017 0.874 L 0 0.857 C -0.001 0.85 0.001 0.844 0.005 0.838 L 0.174 0.574 L 0.177 0.571 C 0.127 0.51 0.102 0.439 0.102 0.359 C 0.102 0.259 0.14 0.174 0.215 0.104 C 0.293 0.035 0.389 0 0.502 0 C 0.613 0 0.707 0.035 0.785 0.104 C 0.863 0.174 0.902 0.259 0.902 0.359" bx:origin="0.000255 0"/>
</svg>