<?xml version="1.0" encoding="utf-8"?>
<svg version="1.1" id="Layer_1" x="0px" y="0px" width="512px" height="512px" viewBox="0 0 1 1" enable-background="new 0 0 512 512" xmlns="http://www.w3.org/2000/svg" xmlns:bx="https://boxy-svg.com">
  <path d="M 1.971 0.461 C 1.935 0.493 1.884 0.496 1.848 0.464 L 1.747 0.371 C 1.721 0.347 1.69 0.347 1.671 0.367 C 1.659 0.38 1.664 0.421 1.667 0.447 L 1.718 0.831 C 1.722 0.865 1.696 0.898 1.659 0.902 C 1.622 0.907 1.588 0.88 1.583 0.846 L 1.527 0.545 C 1.525 0.537 1.518 0.536 1.518 0.546 L 1.499 0.938 C 1.499 0.972 1.468 1 1.431 1 C 1.393 1 1.363 0.972 1.363 0.938 L 1.362 0.543 C 1.362 0.538 1.358 0.537 1.357 0.542 L 1.297 0.85 C 1.29 0.884 1.255 0.909 1.218 0.903 C 1.181 0.896 1.157 0.862 1.164 0.828 L 1.217 0.468 C 1.217 0.461 1.215 0.458 1.212 0.466 L 1.132 0.663 C 1.119 0.696 1.08 0.715 1.045 0.703 C 1.01 0.692 0.991 0.654 1.004 0.622 L 1.144 0.198 C 1.145 0.196 1.146 0.194 1.147 0.191 L 1.147 0.19 C 1.147 0.19 1.147 0.19 1.147 0.19 C 1.186 0.08 1.298 0 1.431 0 C 1.516 0 1.604 0.028 1.671 0.075 C 1.671 0.075 1.671 0.075 1.671 0.075 C 1.744 0.115 1.976 0.346 1.976 0.346 C 2.011 0.379 2.006 0.428 1.971 0.461 Z" transform="matrix(-1, 0, 0, -1, 1.999999, 1)" bx:origin="0.000106 0.5"/>
</svg>