<?xml version="1.0" encoding="utf-8"?>
<svg version="1.1" id="Layer_1" x="0px" y="0px" width="512px" height="512px" viewBox="0 0 1 1" enable-background="new 0 0 512 512" xmlns="http://www.w3.org/2000/svg" xmlns:bx="https://boxy-svg.com">
  <path d="M -0.022 -0.537 C -0.118 -0.449 -0.198 -0.6 -0.248 -0.627 C -0.27 -0.639 -0.306 -0.648 -0.325 -0.631 C -0.344 -0.612 -0.331 -0.577 -0.329 -0.551 C -0.316 -0.423 -0.275 -0.297 -0.277 -0.168 C -0.278 -0.138 -0.306 -0.101 -0.337 -0.098 C -0.368 -0.094 -0.402 -0.124 -0.413 -0.153 C -0.449 -0.249 -0.448 -0.354 -0.47 -0.453 C -0.509 -0.631 -0.396 0 -0.567 0 C -0.597 0 -0.631 -0.032 -0.635 -0.062 C -0.655 -0.191 -0.634 -0.324 -0.636 -0.455 C -0.638 -0.568 -0.634 -0.073 -0.781 -0.097 C -0.812 -0.102 -0.836 -0.141 -0.836 -0.171 C -0.836 -0.292 -0.798 -0.41 -0.782 -0.53 C -0.773 -0.6 -0.827 -0.393 -0.868 -0.336 C -0.9 -0.29 -1.02 -0.261 -0.997 -0.377 C -0.945 -0.64 -0.882 -0.928 -0.567 -0.996 C -0.484 -1.014 -0.396 -0.966 -0.325 -0.921 C -0.209 -0.849 -0.101 -0.758 -0.017 -0.651 C 0.007 -0.621 0.006 -0.563 -0.022 -0.537 Z" transform="matrix(-1, 0, 0, -1, -0.000388, 0.000488)" bx:origin="0.999741 1.000244"/>
</svg>