<?xml version="1.0" encoding="utf-8"?>
<svg width="100px" height="100px" viewBox="0 0 100 100" version="1.1" xmlns="http://www.w3.org/2000/svg" xmlns:bx="https://boxy-svg.com">
  <path d="M 26.957 37.03 C 26.957 45.461 22.436 52.287 16.862 52.287 C 11.288 52.287 6.768 45.461 6.768 37.03 C 6.768 28.606 11.288 21.775 16.862 21.775 C 22.436 21.775 26.957 28.606 26.957 37.03" id="Fill-1" stroke="none" fill="#1B1C19" fill-rule="evenodd" bx:origin="-0.335232 -0.713654"/>
  <path d="M 95.776 38.103 C 95.776 45.939 92.722 52.287 88.953 52.287 C 85.183 52.287 82.127 45.939 82.127 38.103 C 82.127 30.271 85.183 23.92 88.953 23.92 C 92.722 23.92 95.776 30.271 95.776 38.103" id="Fill-2" stroke="none" fill="#1B1C19" fill-rule="evenodd" bx:origin="-6.01707 -0.843233"/>
  <path d="M 2.699 17.457 C 2.374 17.457 2.044 17.391 1.722 17.251 C 0.332 16.65 -0.356 14.91 0.184 13.364 C 2.789 5.913 7.8 1.239 14.293 0.206 C 20.76 -0.821 27.56 2.054 31.228 7.364 C 32.136 8.681 31.914 10.566 30.732 11.576 C 29.549 12.588 27.855 12.338 26.946 11.024 C 24.508 7.494 19.507 5.444 15.059 6.151 C 11.889 6.656 7.61 8.694 5.216 15.541 C 4.801 16.73 3.781 17.457 2.699 17.457" id="Fill-3" stroke="none" fill="#181917" fill-rule="evenodd" bx:origin="0.000004 0.000012"/>
  <path d="M 97.297 17.456 C 95.977 17.456 94.823 16.379 94.629 14.883 C 94.052 10.457 92.426 7.748 90.05 7.256 C 87.829 6.793 85.05 8.323 83.866 10.666 C 83.134 12.111 81.488 12.626 80.19 11.812 C 78.89 11 78.429 9.169 79.159 7.723 C 81.5 3.091 86.495 0.402 91.039 1.351 C 93.29 1.818 98.667 3.986 99.972 14.022 C 100.186 15.664 99.163 17.187 97.687 17.425 C 97.556 17.446 97.426 17.456 97.297 17.456" id="Fill-4" stroke="none" fill="#181917" fill-rule="evenodd" bx:origin="-3.719719 -0.071275"/>
  <path d="M 57.261 96.997 C 51.666 96.997 46.543 96.444 42.036 95.354 C 41.656 95.263 41.297 95.08 40.985 94.819 C 33.774 88.779 32.677 75.65 32.634 75.094 C 32.565 74.193 32.864 73.304 33.449 72.675 C 33.956 72.132 34.629 71.833 35.324 71.833 C 35.434 71.833 35.543 71.84 35.651 71.856 C 35.77 71.872 47.775 73.478 61.855 73.478 C 68.045 73.478 73.754 73.17 78.823 72.562 C 78.92 72.55 79.016 72.544 79.113 72.544 C 79.859 72.544 80.577 72.889 81.09 73.503 C 81.669 74.198 81.921 75.156 81.768 76.087 C 79.653 88.952 74.035 94.731 73.797 94.971 C 73.419 95.351 72.952 95.605 72.449 95.702 C 72.178 95.755 65.675 96.997 57.261 96.997" id="Fill-5" stroke="none" fill="#8E2629" fill-rule="evenodd" bx:origin="-0.66326 -2.854594"/>
  <path d="M 71.986 92.744 C 71.986 92.744 65.539 93.994 57.261 93.994 C 52.678 93.994 47.534 93.611 42.61 92.42 C 36.277 87.116 35.324 74.836 35.324 74.836 C 35.324 74.836 47.43 76.481 61.855 76.481 C 67.449 76.481 73.39 76.234 79.113 75.547 C 77.138 87.556 71.986 92.744 71.986 92.744 Z M 79.166 69.541 L 79.113 69.541 L 78.983 69.543 C 78.807 69.547 78.631 69.562 78.459 69.584 C 73.504 70.176 67.919 70.475 61.855 70.475 C 47.956 70.475 36.096 68.891 35.978 68.874 C 35.76 68.845 35.543 68.83 35.325 68.83 C 33.933 68.83 32.586 69.428 31.574 70.515 C 30.404 71.772 29.805 73.549 29.945 75.352 C 30.064 76.883 31.336 90.496 39.362 97.218 C 39.985 97.74 40.701 98.105 41.462 98.289 C 46.157 99.424 51.473 100 57.261 100 C 65.907 100 72.631 98.716 72.914 98.661 C 73.918 98.465 74.852 97.958 75.609 97.196 C 76.271 96.529 82.122 90.316 84.388 76.845 C 84.471 76.427 84.515 75.994 84.515 75.547 C 84.515 72.248 82.125 69.571 79.166 69.541 L 79.166 69.541 Z" id="Fill-6" stroke="none" fill="#181917" fill-rule="evenodd" bx:origin="-0.548176 -2.208213"/>
  <path d="M 57.256 96.997 C 51.663 96.997 46.542 96.444 42.036 95.354 C 41.656 95.263 41.297 95.08 40.985 94.819 C 38.547 92.776 36.553 89.729 35.06 85.762 C 34.779 85.015 34.782 84.174 35.066 83.428 C 35.351 82.683 35.894 82.098 36.572 81.804 C 38.811 80.835 41.5 80.343 44.564 80.343 C 53.245 80.343 64.969 84.573 69.561 91.652 C 70.126 92.521 70.231 93.66 69.836 94.639 C 69.442 95.617 68.608 96.287 67.648 96.396 C 64.156 96.796 60.661 96.997 57.258 96.997 L 57.256 96.997" id="Fill-7" stroke="none" fill="#C94246" fill-rule="evenodd" bx:origin="-0.989485 -4.824247"/>
  <path d="M 57.256 93.994 C 52.677 93.994 47.533 93.611 42.61 92.42 C 40.256 90.448 38.646 87.512 37.551 84.602 C 39.545 83.74 41.963 83.346 44.564 83.346 C 53.104 83.346 63.598 87.593 67.373 93.409 C 64.756 93.709 61.216 93.994 57.256 93.994 Z M 71.751 89.894 C 66.46 81.741 53.794 77.34 44.564 77.34 C 41.164 77.34 38.145 77.901 35.593 79.005 C 34.236 79.592 33.15 80.765 32.582 82.255 C 32.012 83.746 32.008 85.427 32.57 86.922 C 34.25 91.386 36.535 94.85 39.362 97.218 C 39.984 97.739 40.701 98.105 41.462 98.289 C 46.157 99.424 51.472 100 57.256 100 C 60.751 100 64.341 99.793 67.924 99.384 C 69.842 99.165 71.51 97.825 72.299 95.868 C 73.088 93.911 72.88 91.635 71.751 89.894 L 71.751 89.894 Z" id="Fill-8" stroke="none" fill="#181917" fill-rule="evenodd" bx:origin="-0.791506 -3.413062"/>
  <path d="M 58.315 83.713 C 52.694 83.713 47.425 83.262 42.655 82.376 C 41.974 82.249 41.418 81.701 41.224 80.963 C 40.915 79.789 40.554 78.105 40.15 75.958 C 40.033 75.339 40.186 74.696 40.562 74.222 C 40.905 73.791 41.397 73.544 41.911 73.544 L 42.058 73.551 C 46.713 73.974 53.921 74.477 61.837 74.477 C 66.718 74.477 71.326 74.286 75.535 73.909 L 75.68 73.902 C 76.179 73.902 76.658 74.131 77 74.541 C 77.374 74.991 77.543 75.606 77.459 76.211 L 76.829 80.71 C 76.709 81.565 76.109 82.238 75.339 82.377 C 75.039 82.431 67.862 83.713 58.315 83.713" id="Fill-9" stroke="none" fill="#EAE8D6" fill-rule="evenodd" bx:origin="-1.073399 -7.232177"/>
  <path d="M 75.05 80.401 C 75.05 80.401 67.826 81.711 58.315 81.711 C 53.56 81.711 48.233 81.382 42.952 80.401 C 42.617 79.127 42.253 77.361 41.911 75.546 C 46.807 75.992 53.975 76.479 61.837 76.479 C 66.324 76.479 71.036 76.32 75.68 75.904 L 75.05 80.401 Z M 75.694 71.9 L 75.624 71.9 C 75.532 71.902 75.441 71.908 75.35 71.916 C 71.2 72.288 66.655 72.475 61.837 72.475 C 53.982 72.475 46.825 71.976 42.204 71.556 C 42.107 71.546 42.008 71.542 41.911 71.542 C 40.883 71.542 39.897 72.033 39.212 72.898 C 38.46 73.846 38.155 75.131 38.388 76.368 C 38.808 78.596 39.17 80.283 39.496 81.524 C 39.884 82.999 40.996 84.097 42.359 84.35 C 47.227 85.256 52.596 85.715 58.315 85.715 C 68.006 85.715 75.323 84.409 75.63 84.353 C 77.166 84.075 78.367 82.729 78.607 81.018 L 79.215 76.675 C 79.259 76.426 79.283 76.168 79.283 75.904 C 79.283 73.695 77.678 71.905 75.694 71.9 L 75.694 71.9 Z" id="Fill-10" stroke="none" fill="#181917" fill-rule="evenodd" bx:origin="-0.935071 -5.047768"/>
</svg>