<?xml version="1.0" encoding="utf-8"?>
<svg viewBox="0 0 1 1" width="36.006" height="35.95" xmlns="http://www.w3.org/2000/svg" xmlns:bx="https://boxy-svg.com">
  <path stroke="none" fill="#000000" d="M 0.5 0 C 0.634 0 0.749 0.03 0.843 0.089 C 0.95 0.155 1.002 0.236 1 0.334 C 1.003 0.43 0.951 0.511 0.843 0.577 L 0.845 0.577 C 0.799 0.606 0.749 0.628 0.695 0.643 L 0.695 0.889 C 0.695 0.92 0.684 0.947 0.663 0.969 L 0.66 0.971 C 0.638 0.99 0.612 1 0.584 1 L 0.417 1 C 0.386 1 0.36 0.99 0.339 0.971 L 0.336 0.967 C 0.316 0.945 0.306 0.919 0.306 0.889 L 0.306 0.643 C 0.251 0.628 0.201 0.606 0.156 0.577 C 0.05 0.511 -0.002 0.43 0 0.334 C -0.002 0.236 0.05 0.155 0.156 0.089 C 0.251 0.03 0.366 0 0.5 0" bx:origin="0.000056 0"/>
</svg>