
<svg width="114px" height="97px" viewBox="0 43 114 97" version="1.1" xmlns="http://www.w3.org/2000/svg" xmlns:xlink="http://www.w3.org/1999/xlink">
    <path d="M3.439,60.786 C3.078,60.786 2.711,60.72 2.354,60.581 C0.809,59.981 0.044,58.242 0.645,56.698 C3.539,49.254 9.107,44.585 16.322,43.553 C23.508,42.526 31.064,45.399 35.14,50.705 C36.149,52.019 35.902,53.902 34.589,54.911 C33.274,55.92 31.392,55.674 30.382,54.36 C27.673,50.833 22.116,48.786 17.173,49.493 C13.651,49.997 8.896,52.033 6.236,58.873 C5.775,60.059 4.641,60.786 3.439,60.786" id="Fill-1" stroke="none" fill="#181917" fill-rule="evenodd"></path>
    <path d="M108.554,60.786 C107.087,60.786 105.805,59.709 105.589,58.215 C104.948,53.794 103.142,51.087 100.501,50.595 C98.033,50.138 94.945,51.663 93.63,54.002 C92.817,55.447 90.989,55.96 89.545,55.147 C88.101,54.335 87.588,52.507 88.399,51.062 C91.001,46.434 96.551,43.758 101.6,44.697 C104.102,45.163 110.076,47.329 111.526,57.355 C111.764,58.995 110.627,60.517 108.987,60.754 C108.842,60.775 108.697,60.786 108.554,60.786" id="Fill-2" stroke="none" fill="#181917" fill-rule="evenodd"></path>
    <path d="M58.019,137 C57.119,137 56.268,136.597 55.698,135.901 C55.128,135.206 54.9,134.292 55.077,133.411 C55.738,130.113 59.482,113.664 68.322,113.664 L68.533,113.668 C77.526,113.936 80.211,130.314 80.658,133.595 C80.775,134.454 80.516,135.32 79.945,135.973 C79.376,136.625 78.552,137 77.686,137 L58.019,137" id="Fill-3" stroke="none" fill="#8E2629" fill-rule="evenodd"></path>
    <path d="M58.019,134 C58.019,134 61.493,116.665 68.322,116.664 L68.443,116.666 C75.353,116.873 77.686,134 77.686,134 L58.019,134 Z M83.631,133.19 C82.923,127.991 79.747,111.002 68.623,110.669 C68.522,110.665 68.423,110.664 68.322,110.664 C62.788,110.665 58.317,114.854 55.033,123.116 C53.133,127.9 52.176,132.622 52.136,132.821 C51.782,134.584 52.238,136.412 53.378,137.803 C54.518,139.194 56.221,140 58.019,140 L77.686,140 C79.418,140 81.066,139.251 82.205,137.946 C83.345,136.641 83.864,134.907 83.631,133.19 L83.631,133.19 Z" id="Fill-4" stroke="none" fill="#181917" fill-rule="evenodd"></path>
    <path d="M22.177,63.462 C12.374,63.462 4.427,71.499 4.427,81.412 C4.427,84.774 5.357,87.91 6.948,90.6 C5.938,91.71 5.159,93.086 4.732,94.66 C3.378,99.658 6.073,104.738 10.754,106.007 C15.407,107.269 20.268,104.285 21.654,99.335 C21.83,99.341 22,99.362 22.177,99.362 C31.979,99.362 39.927,91.326 39.927,81.412 C39.927,71.499 31.979,63.462 22.177,63.462" id="Fill-5" stroke="none" fill="#FFFFF9" fill-rule="evenodd"></path>
    <path d="M22.193,96.362 L22.091,96.356 C21.977,96.348 21.862,96.34 21.746,96.337 L19.399,96.265 L18.766,98.526 C17.979,101.335 15.574,103.296 12.92,103.296 C12.455,103.296 11.991,103.234 11.539,103.111 C8.463,102.277 6.708,98.838 7.628,95.445 C7.915,94.387 8.447,93.41 9.166,92.62 L10.659,90.98 L9.53,89.072 C8.154,86.745 7.427,84.096 7.427,81.412 C7.427,73.169 14.044,66.462 22.177,66.462 C30.31,66.462 36.927,73.169 36.927,81.412 C36.927,89.656 30.31,96.362 22.193,96.362 Z M22.177,60.462 C10.735,60.462 1.427,69.86 1.427,81.412 C1.427,84.487 2.107,87.527 3.408,90.312 C2.713,91.407 2.18,92.612 1.837,93.875 C0.052,100.461 3.7,107.203 9.969,108.902 C10.933,109.164 11.925,109.296 12.92,109.296 C17.508,109.296 21.686,106.512 23.725,102.305 C34.446,101.502 42.927,92.438 42.927,81.412 C42.927,69.86 33.618,60.462 22.177,60.462 L22.177,60.462 Z" id="Fill-6" stroke="none" fill="#181917" fill-rule="evenodd"></path>
    <path d="M108.39,91.734 C109.848,88.813 110.711,85.258 110.711,81.412 C110.711,71.499 105.022,63.462 98.005,63.462 C90.988,63.462 85.299,71.499 85.299,81.412 C85.299,91.326 90.988,99.362 98.005,99.362 C98.148,99.362 98.287,99.339 98.43,99.332 C98.516,99.605 98.611,99.878 98.724,100.146 C100.318,103.931 104.049,105.574 107.057,103.813 C110.063,102.053 111.208,97.556 109.614,93.769 C109.288,92.996 108.869,92.317 108.39,91.734" id="Fill-7" stroke="none" fill="#FFFFF9" fill-rule="evenodd"></path>
    <path d="M100.598,96.225 L101.292,98.433 C101.35,98.618 101.414,98.803 101.49,98.984 C102.138,100.523 103.318,101.52 104.496,101.52 C104.854,101.52 105.206,101.42 105.541,101.224 C107.231,100.234 107.843,97.294 106.85,94.933 C106.649,94.459 106.388,94.022 106.072,93.639 L104.837,92.135 L105.705,90.394 C107.018,87.765 107.711,84.659 107.711,81.412 C107.711,73.308 103.266,66.462 98.005,66.462 C92.744,66.462 88.299,73.308 88.299,81.412 C88.299,89.516 92.744,96.362 98.005,96.362 C98.07,96.35 98.178,96.341 98.286,96.335 L100.598,96.225 Z M104.496,107.52 L104.495,107.52 C101.211,107.52 98.131,105.486 96.411,102.26 C88.379,101.227 82.299,92.441 82.299,81.412 C82.299,69.665 89.198,60.462 98.005,60.462 C106.813,60.462 113.711,69.665 113.711,81.412 C113.711,84.944 113.058,88.376 111.811,91.443 C112.021,91.817 112.21,92.204 112.379,92.604 C114.569,97.81 112.897,103.87 108.572,106.402 C107.323,107.133 105.913,107.52 104.496,107.52 L104.496,107.52 Z" id="Fill-8" stroke="none" fill="#181917" fill-rule="evenodd"></path>
</svg>
