<?xml version="1.0" encoding="utf-8"?>
<svg viewBox="3.725 6.05 51.55 87.9" xmlns="http://www.w3.org/2000/svg">
  <g stroke="none">
    <path fill="#767D83" d="M 13.525 93.95 L 15.425 88.10000000000001 L 5.875 84.2 L 3.725 89.95 L 13.525 93.95" style=""/>
    <path fill="#767D83" d="M 23.825000000000003 9.350000000000009 L 22.575000000000003 14.350000000000009 L 13.625000000000004 11.40000000000001 L 12.325000000000003 15.500000000000009 L 21.425000000000004 18.70000000000001 L 19.775000000000006 25.25000000000001 L 19.825000000000006 28.350000000000012 L 25.925000000000004 30.450000000000014 L 33.275000000000006 32.90000000000001 L 38.37500000000001 34.70000000000001 L 41.87500000000001 32.45000000000001 L 43.37500000000001 25.75000000000001 L 52.37500000000001 28.55000000000001 L 53.675000000000004 24.70000000000001 L 44.325 21.45000000000001 L 45.525000000000006 15.95000000000001 L 45.425000000000004 13.15000000000001 L 27.525000000000006 7.600000000000009 L 23.825000000000006 9.350000000000009 L 23.825000000000003 9.350000000000009 Z" style=""/>
    <path fill="#6A6F74" d="M 12.325 15.5 L 10.174999999999999 22.15 L 19.775 25.25 L 21.424999999999997 18.7 L 12.324999999999998 15.5" style=""/>
    <path fill="#6A6F74" d="M 22.575 14.349999999999998 L 23.825 9.349999999999998 L 15.274999999999999 6.049999999999998 L 13.624999999999998 11.399999999999999 L 22.574999999999996 14.349999999999998 L 22.575 14.349999999999998 Z" style=""/>
    <path fill="#6A6F74" d="M 52.375 28.549999999999997 L 43.375 25.749999999999996 L 41.875 32.449999999999996 L 50.075 35.65 L 52.375 28.549999999999997" style=""/>
    <path fill="#6A6F74" d="M 55.275 19.7 L 45.525 15.95 L 44.324999999999996 21.45 L 53.675 24.7 L 55.275 19.7" style=""/>
    <path fill="#B47B41" d="M33.275 32.9l-7.35-2.45L5.875 84.2l9.55 3.9 17.85-55.2z" style=""/>
  </g>
</svg>