<?xml version="1.0" encoding="utf-8"?>
<svg viewBox="0 0 0.8 1.003" width="0.798px" height="1px" xmlns="http://www.w3.org/2000/svg" xmlns:bx="https://boxy-svg.com">
  <g transform="matrix(0.013083, 0, 0, 0.013038, 0, 0)" bx:origin="0 0">
    <title>Pickax</title>
    <path fill="#B47B41" stroke="none" d="M 32.5 16.55 L 24.3 12.85 L 2.55 72.2 L 11.3 76.7 L 32.5 16.55 Z"/>
    <path fill="#EEEEEE" stroke="none" d="M 23.4 9.4 L 26.8 1.6 L 0 4.55 L 1.2 8.95 L 23.4 9.4 M 39.4 6.45 L 35.5 15.5 L 57.45 26.75 L 61.15 22.95 L 39.4 6.45 Z"/>
    <path fill="#F7F7F7" stroke="none" d="M 39.4 6.45 L 39.5 6.45 L 39.45 6.4 L 40.3 4.3 L 27.4 0 L 26.8 1.6 L 23.4 9.4 L 22.3 11.95 L 24.3 12.85 L 32.5 16.55 L 34.7 17.55 L 35.5 15.5 L 39.4 6.45 Z"/>
  </g>
</svg>