<?xml version="1.0" encoding="utf-8"?>
<svg viewBox="0 0 53.028 100" width="53.028" height="100" xmlns="http://www.w3.org/2000/svg" xmlns:bx="https://boxy-svg.com">
  <g stroke="none" bx:origin="0 0">
    <path fill="#E26231" d="M19.407 81.335l-8.158-3.956-2.35 6.428-3.275-1.298L0 90.915 16.378 100l5.81-11.001-4.82-1.916 2.039-5.748M5.87 89.617l1.484-2.349 8.652 3.461-1.668 2.905-8.468-4.017z" style=""/>
    <path fill="#F7F7F7" d="M16.626 24.598l1.73.618Q23.239 6.428 41.533 4.08q13.102 8.158 8.158 31.768l.742.247Q58.096 8.653 43.078 0 21.94 3.028 16.626 24.598m10.383 9.827l6.736 2.472 6.18-14.647-7.292-3.4-5.81 15.513.186.062z" style=""/>
    <path fill="#EEE" d="M34.858 37.268l3.09 1.175 1.978-6.243 9.765 3.647q4.944-23.61-8.158-31.768-18.294 2.349-23.177 21.137l6.675 2.225-2.349 5.377 4.141 1.545 5.81-15.513 7.293 3.4-6.18 14.647 1.112.371z" style=""/>
    <path fill="#D9DBDB" d="M33.745 36.897l-6.736-2.472-15.76 42.954 8.158 3.956 15.45-44.067-1.112-.37z" style=""/>
  </g>
</svg>