<?xml version="1.0" encoding="utf-8"?>
<svg viewBox="3.725 6.05 51.55 87.9" xmlns="http://www.w3.org/2000/svg">
  <g transform="matrix(1, 0, 0, 1, -1356.675049, -18.499996)">
    <g>
      <path fill="#767D83" stroke="none" d=" M 1370.2 112.45 L 1372.1 106.6 1362.55 102.7 1360.4 108.45 1370.2 112.45 M 1380.5 27.85 L 1379.25 32.85 1370.3 29.9 1369 34 1378.1 37.2 1376.45 43.75 1376.5 46.85 1382.6 48.95 1389.95 51.4 1395.05 53.2 1398.55 50.95 1400.05 44.25 1409.05 47.05 1410.35 43.2 1401 39.95 1402.2 34.45 1402.1 31.65 1384.2 26.1 1380.5 27.85 Z"/>
      <path fill="#6A6F74" stroke="none" d=" M 1369 34 L 1366.85 40.65 1376.45 43.75 1378.1 37.2 1369 34 M 1411.95 38.2 L 1402.2 34.45 1401 39.95 1410.35 43.2 1411.95 38.2 M 1409.05 47.05 L 1400.05 44.25 1398.55 50.95 1406.75 54.15 1409.05 47.05 M 1379.25 32.85 L 1380.5 27.85 1371.95 24.55 1370.3 29.9 1379.25 32.85 Z"/>
      <path fill="#B47B41" stroke="none" d=" M 1389.95 51.4 L 1382.6 48.95 1362.55 102.7 1372.1 106.6 1389.95 51.4 Z"/>
    </g>
  </g>
</svg>